<svg width="180" height="44" xmlns="http://www.w3.org/2000/svg"><g fill-rule="nonzero" fill="none"><g fill="#00A1E1"><path d="M14.76.263h7.291v18.174H14.76zM14.76 25.708h7.291v18.176H14.76zM.18.263H7.47v43.621H.18z"/></g><path d="M51.217 22.073V.263h-7.29v21.81a3.644 3.644 0 0 1-3.647 3.636 3.636 3.636 0 0 1-3.645-3.636V.263h-7.292l-.004 21.81c0 6.038 4.89 10.907 10.941 10.907 6.051 0 10.939-4.87 10.939-10.907h-.002Z" fill="#E6302B"/><path fill="#00A1E1" d="M70.851 18.315v-7.8h-2.97v7.8h-2.969V.257h2.97v7.485h2.97V.257h2.97v18.057h-2.97zM81.401 18.524c-2.475 0-4.454-1.518-4.454-4.397V4.55c0-3.01 1.98-4.502 4.454-4.502 2.475 0 4.455 1.492 4.455 4.398v9.577c0 2.984-1.98 4.502-4.455 4.502Zm1.485-14.08c0-.994-.573-1.596-1.485-1.596-.912 0-1.485.602-1.485 1.597v9.682c0 .995.573 1.57 1.485 1.57.912 0 1.485-.575 1.485-1.57V4.445ZM93.332 18.524c-2.476 0-4.455-1.518-4.455-4.397V4.55c0-3.01 1.98-4.502 4.455-4.502 2.474 0 4.454 1.492 4.454 4.398v1.308h-2.97V4.445c0-.995-.573-1.597-1.484-1.597-.912 0-1.485.602-1.485 1.597v9.682c0 .995.573 1.57 1.485 1.57.911 0 1.484-.575 1.484-1.57V10.83H93.15V8.134h4.637v5.888c0 2.984-1.98 4.502-4.454 4.502ZM100.911 18.315V.257h8.024V3.03h-5.054v4.71h4.272v2.774h-4.272v5.025h5.054v2.774h-8.024zM115.813 18.524c-2.502 0-4.482-1.702-4.482-4.135v-1.256h2.97v.994c0 1.1.703 1.57 1.512 1.57.885 0 1.484-.575 1.484-1.57V13.5c0-.89-.234-1.413-.911-1.989l-3.544-2.983c-.599-.498-1.51-1.675-1.51-3.297v-.89c0-2.512 1.77-4.292 4.48-4.292 2.684 0 4.481 1.7 4.481 4.292v1.204h-2.996V4.34c0-.89-.599-1.492-1.484-1.492-.809 0-1.512.602-1.512 1.492v.602c0 .811.313 1.256.834 1.7l3.543 2.984c1.094.916 1.615 1.858 1.615 3.297v1.414c0 2.407-2.006 4.187-4.48 4.187ZM127.456 18.524c-2.475 0-4.454-1.518-4.454-4.397V4.55c0-3.01 1.98-4.502 4.454-4.502 2.475 0 4.455 1.492 4.455 4.398v1.988h-2.97V4.445c0-.995-.573-1.597-1.485-1.597-.911 0-1.484.602-1.484 1.597v9.682c0 .995.573 1.57 1.484 1.57.912 0 1.485-.575 1.485-1.57V11.93h2.97v2.093c0 2.984-1.98 4.502-4.455 4.502ZM140.976 18.315v-7.8h-2.97v7.8h-2.97V.257h2.97v7.485h2.97V.257h2.97v18.057h-2.97zM151.525 18.524c-2.475 0-4.454-1.518-4.454-4.397V4.55c0-3.01 1.98-4.502 4.454-4.502 2.475 0 4.455 1.492 4.455 4.398v9.577c0 2.984-1.98 4.502-4.455 4.502Zm1.485-14.08c0-.994-.573-1.596-1.485-1.596-.911 0-1.484.602-1.484 1.597v9.682c0 .995.573 1.57 1.484 1.57.912 0 1.485-.575 1.485-1.57V4.445ZM163.455 18.524c-2.474 0-4.454-1.518-4.454-4.397V4.55c0-3.01 1.98-4.502 4.454-4.502 2.475 0 4.455 1.492 4.455 4.398v9.577c0 2.984-1.98 4.502-4.455 4.502Zm1.485-14.08c0-.994-.572-1.596-1.484-1.596s-1.485.602-1.485 1.597v9.682c0 .995.573 1.57 1.485 1.57.912 0 1.484-.575 1.484-1.57V4.445ZM171.036 18.315V.257h2.97V15.54h5.053v2.774h-8.023z"/><path d="M69.34 43.814c-2.448 0-4.428-1.517-4.428-4.396v-13.87h2.97v13.87c0 .994.573 1.57 1.459 1.57.912 0 1.51-.576 1.51-1.57v-13.87h2.97v13.765c0 2.984-1.98 4.501-4.48 4.501ZM82.104 28.217v15.388h-2.97V28.217h-3.386v-2.67h9.743v2.67h-3.387zM93.305 43.605v-5.6c0-1.308-.312-1.99-1.588-1.99h-1.38v7.59h-2.97V25.548h4.532c2.892 0 4.377 1.675 4.377 4.579v1.283c0 1.57-.47 2.616-1.485 3.193 1.016.523 1.485 1.517 1.485 3.192v5.81h-2.97Zm0-13.294c0-1.283-.312-1.99-1.588-1.99h-1.38v4.92h1.38c1.276 0 1.588-.732 1.588-2.015v-.915ZM99.4 43.605V25.548h8.024v2.774h-5.054v4.71h4.273v2.775h-4.273v5.024h5.054v2.774zM114.796 43.814c-2.475 0-4.454-1.517-4.454-4.396V29.84c0-3.01 1.98-4.502 4.454-4.502 2.476 0 4.455 1.491 4.455 4.397v1.989h-2.97v-1.99c0-.994-.572-1.596-1.485-1.596-.912 0-1.485.602-1.485 1.597v9.683c0 .994.573 1.57 1.485 1.57.913 0 1.485-.576 1.485-1.57V37.22h2.97v2.093c0 2.984-1.98 4.501-4.455 4.501ZM128.316 43.605v-7.798h-2.97v7.798h-2.97V25.548h2.97v7.485h2.97v-7.485h2.97v18.057zM139.569 28.217v15.388h-2.97V28.217h-3.386v-2.67h9.742v2.67h-3.386z" fill="#E6302B"/></g></svg>